<?xml version="1.0" encoding="UTF-8"?>
<svg width="254px" height="80px" viewBox="0 0 254 80" version="1.1" xmlns="http://www.w3.org/2000/svg" xmlns:xlink="http://www.w3.org/1999/xlink">
    
    <title>nanix-logotipo</title>
    <desc>Created with Sketch.</desc>
    <g id="nanix-logotipo" stroke="none" stroke-width="1" fill="none" fill-rule="evenodd">
        <g id="logotipo">
            <path d="M49.6591075,-1.71662095e-14 C52.6647973,-1.71662095e-14 57.0188271,0.451292865 62.1352324,4.47386615 C67.2516376,8.49643944 69.2806776,14.970476 69.2806776,19.2967454 L69.2806776,19.2967454 L69.2806776,74.693247 C52.4703353,66.4941262 42.4436775,61.6026716 39.2007041,60.0188831 C39.2007041,64.9764069 37.667692,69.7403467 33.9915906,73.6575722 C30.3154892,77.5747978 25.0354406,79.9781354 19.9942906,79.9781354 C14.9531405,79.9781354 9.89635193,78.4689574 5.36928757,73.8616565 C0.842223218,69.2543556 -7.10542736e-15,63.3412265 -7.10542736e-15,60.8929065 L-7.10542736e-15,60.8929065 L-7.10542736e-15,5.30022815 C18.5914891,14.3723785 28.6201729,19.2607652 30.0860515,19.9653882 C30.0860515,12.0283117 33.8821612,7.42548459 37.2503754,4.47386615 C41.6090443,0.654296875 47.1912461,-1.71662095e-14 49.6591075,-1.71662095e-14 Z M10.7238579,46.1393805 L10.7238579,59.7530939 C10.5588897,62.1057741 11.3561401,64.3347852 13.1156091,66.4401272 C15.7548127,69.5981402 21.0326149,70.1477807 24.7261692,67.6565093 C28.4197236,65.1652378 29.3196759,60.3757605 27.9645634,57.1898334 C27.061155,55.065882 25.7269515,53.5218762 23.9619528,52.557816 L10.7238579,46.1393805 Z M10.7026456,22.4535917 L10.7026456,34.2286453 L58.5326582,57.4697525 L58.5326582,45.7502679 L10.7026456,22.4535917 Z M44.5856435,12.3248237 C40.8920891,14.8160951 39.9921368,19.6055725 41.3472494,22.7914996 C42.2506577,24.915451 43.5848613,26.4594568 45.3498599,27.423517 L58.5879548,33.8419524 L58.5879548,20.2282391 C58.752923,17.8755589 57.9556726,15.6465478 56.1962036,13.5412058 C53.5570001,10.3831928 48.2791979,9.83355227 44.5856435,12.3248237 Z" id="logo" fill="#AB160F"></path>
            <path d="M109.286838,26.6371681 L109.286838,53.3628319 L90.6072974,38.0502886 L90.6072974,53.3628319 L85.2894915,53.3628319 L85.2894915,26.6371681 L103.877965,41.9637548 L103.877965,26.6371681 L109.286838,26.6371681 Z M207.772174,26.6371681 L207.772174,53.3628319 L189.092634,38.0502886 L189.092634,53.3628319 L183.774828,53.3628319 L183.774828,26.6371681 L202.363302,41.9637548 L202.363302,26.6371681 L207.772174,26.6371681 Z M129.19189,26.6371681 L143.922172,53.3628319 L137.732365,53.3628319 C137.732365,53.3628319 137.039515,52.1337459 135.653817,49.6755738 L122.708751,49.6755738 L120.657506,53.3628319 L114.471846,53.3628319 L129.19189,26.6371681 Z M163.812838,26.6371681 L178.543121,53.3628319 L172.353313,53.3628319 C172.353313,53.3628319 171.660464,52.1337459 170.274765,49.6755738 L157.329699,49.6755738 L155.278454,53.3628319 L149.092794,53.3628319 L163.812838,26.6371681 Z M218.407268,26.6371681 L218.407268,53.3628319 L213.031227,53.3628319 L213.031227,26.6371681 L218.407268,26.6371681 Z M230.640174,26.6371681 L238.349299,35.7635336 L246.021444,26.6371681 L253.065541,26.6371681 L241.892688,40 L253.065541,53.3628319 L246.021444,53.3628319 L238.349299,44.1925643 L230.640174,53.3628319 L223.633056,53.3628319 L234.797528,40 L223.633056,26.6371681 L230.640174,26.6371681 Z M129.197009,37.8460315 L125.736111,44.1667243 L132.658814,44.1667243 L129.197009,37.8460315 Z M163.817957,37.8460315 L160.357059,44.1667243 L167.279763,44.1667243 L163.817957,37.8460315 Z" id="naanix" fill="#282E35"></path>
        </g>
    </g>
</svg>