<?xml version="1.0" encoding="utf-8"?>

<svg version="1.1" xmlns="http://www.w3.org/2000/svg" xmlns:xlink="http://www.w3.org/1999/xlink" x="0px" y="0px" viewBox="0 0 376.9 48" style="enable-background:new 0 0 376.9 48;" xml:space="preserve">

<g id="Capa_1">
</g>
<g id="Capa_1_copia">
&#x9;<g>
&#x9;&#x9;<g>
&#x9;&#x9;&#x9;<path fill="#FFFFFF" d="M32.5,26.9v5.5H7.6c0,9.6,5.2,11.1,10.5,11.1c5.8,0,11.9-1.3,11.9-1.3l0.9,3.8c0,0-6.9,2.1-14.2,2.1&#xA;&#x9;&#x9;&#x9;&#x9;C7.9,48,0,45.2,0,30.9c0-14.4,7.9-17.1,16.2-17.1C28.6,13.8,32.5,18.7,32.5,26.9z M7.7,28.4h17.9v-2c0-4.6-2.5-8.2-8.4-8.2&#xA;&#x9;&#x9;&#x9;&#x9;C12.4,18.2,7.7,19.6,7.7,28.4z"></path>
&#x9;&#x9;&#x9;<path fill="#FFFFFF" d="M38.2,1.1l7.2-0.7v35.7c0,5,0.9,7.2,8.1,7.9l-0.7,4c-11.6-0.5-14.6-3.6-14.6-11.4V1.1z"></path>
&#x9;&#x9;&#x9;<path fill="#FFFFFF" d="M86.1,26.9v5.5H61.1c0,9.6,5.2,11.1,10.5,11.1c5.8,0,11.9-1.3,11.9-1.3l0.9,3.8c0,0-6.9,2.1-14.2,2.1&#xA;&#x9;&#x9;&#x9;&#x9;c-8.7,0-16.6-2.8-16.6-17.1c0-14.4,7.9-17.1,16.2-17.1C82.1,13.8,86.1,18.7,86.1,26.9z M61.2,28.4h17.9v-2c0-4.6-2.5-8.2-8.4-8.2&#xA;&#x9;&#x9;&#x9;&#x9;C65.9,18.2,61.2,19.6,61.2,28.4z"></path>
&#x9;&#x9;&#x9;<path fill="#FFFFFF" d="M110.8,27.8c3.9-11,7.4-14,7.4-14l6.5,1.3c0,0-3.5,2.5-8.1,14.6l-6.6,17.6h-9.6L87,14.5h7.5l11.1,28.2&#xA;&#x9;&#x9;&#x9;&#x9;L110.8,27.8z"></path>
&#x9;&#x9;&#x9;<path fill="#FFFFFF" d="M156.6,26.9v5.5h-24.9c0,9.6,5.2,11.1,10.5,11.1c5.8,0,11.9-1.3,11.9-1.3l0.9,3.8c0,0-6.9,2.1-14.2,2.1&#xA;&#x9;&#x9;&#x9;&#x9;c-8.7,0-16.6-2.8-16.6-17.1c0-14.4,7.9-17.1,16.2-17.1C152.7,13.8,156.6,18.7,156.6,26.9z M131.8,28.4h17.9v-2&#xA;&#x9;&#x9;&#x9;&#x9;c0-4.6-2.5-8.2-8.4-8.2C136.5,18.2,131.8,19.6,131.8,28.4z"></path>
&#x9;&#x9;&#x9;<path fill="#FFFFFF" d="M186.3,47.3V24.9c0-4.9-2.2-6.7-5.8-6.7c-3.1,0-7.8,1.3-12.3,3.1v26H161V14.5h5.8l0.7,2.8&#xA;&#x9;&#x9;&#x9;&#x9;c4.6-1.8,10.1-3.5,15.1-3.5c7.6,0,10.8,3.3,10.8,11.1v22.5H186.3z"></path>
&#x9;&#x9;&#x9;<path fill="#FFFFFF" d="M247.9,47.3V24.9c0-4.9-2.2-6.7-5.8-6.7c-3.1,0-7,1.3-11.7,3.2c0.2,1,0.3,2.2,0.3,3.4v22.5h-7.2V24.9&#xA;&#x9;&#x9;&#x9;&#x9;c0-4.9-2.2-6.7-5.8-6.7c-3.1,0-7,1.3-11.4,3.1v26H199V14.5h5.8l0.7,2.8c4.6-1.8,9.3-3.5,14.3-3.5c4.6,0,7.6,1.2,9.2,3.8&#xA;&#x9;&#x9;&#x9;&#x9;c5.7-2.1,10.2-3.8,15.2-3.8c7.6,0,10.8,3.3,10.8,11.1v22.5H247.9z"></path>
&#x9;&#x9;&#x9;<path fill="#FFFFFF" d="M260.7,7.3V0.7l7.2-0.7v7.3H260.7z M260.7,47.3V14.5h7.2v32.8H260.7z"></path>
&#x9;&#x9;&#x9;<path fill="#FFFFFF" d="M298.9,47.3V24.9c0-4.9-2.2-6.7-5.8-6.7c-3.1,0-7.8,1.3-12.3,3.1v26h-7.2V14.5h5.8l0.7,2.8&#xA;&#x9;&#x9;&#x9;&#x9;c4.6-1.8,10.1-3.5,15.1-3.5c7.6,0,10.8,3.3,10.8,11.1v22.5H298.9z"></path>
&#x9;&#x9;&#x9;<path fill="#FFFFFF" d="M336.8,16.2V0.7L344,0v46.9h-6.2l-0.5-2.3c0,0-6.1,3-12.6,3c-8.3,0-14.4-2.8-14.4-17.1&#xA;&#x9;&#x9;&#x9;&#x9;c0-14.4,6.2-17.1,14.4-17.1C330.1,13.4,335.2,15.5,336.8,16.2z M336.8,20.3c0,0-5.6-2.2-10.6-2.2c-5.1,0-8.2,1.3-8.2,12.4&#xA;&#x9;&#x9;&#x9;&#x9;s3.1,12.6,8.2,12.6c5,0,10.6-2.4,10.6-2.4V20.3z"></path>
&#x9;&#x9;&#x9;<path fill="#FFFFFF" d="M361.6,48c-4.3,0-9.1-0.7-12.5-1.8l0.9-3.8c3.6,0.8,7.5,1.3,11.1,1.3c6.6,0,8.6-2.3,8.6-5.1&#xA;&#x9;&#x9;&#x9;&#x9;c0-2.2-1.4-3.6-8.8-5.5c-8.6-2.2-11.4-5.1-11.4-10.5c0-5.4,5.2-8.8,15.3-8.8c4,0,7.6,0.4,11,1.1l-0.5,3.8&#xA;&#x9;&#x9;&#x9;&#x9;c-3.5-0.5-7.3-0.8-10.8-0.8c-6.2,0-7.9,2.5-7.9,4.8c0,2.3,0.9,4,7.1,5.5c10.2,2.6,13,5,13,10.2C376.9,44.2,372.7,48,361.6,48z"></path>
&#x9;&#x9;</g>
&#x9;</g>
</g>
</svg>